HIERARCHY
ROOT Hips
{
	OFFSET 0.000000 0.000000 0.000000
	CHANNELS 6 Xposition Yposition Zposition Zrotation Yrotation Xrotation 
	JOINT LHipJoint
	{
		OFFSET 0.000000 0.000000 0.000000
		CHANNELS 3 Zrotation Yrotation Xrotation
		JOINT LeftUpLeg
		{
			OFFSET 1.363060 -1.794630 0.839290
			CHANNELS 3 Zrotation Yrotation Xrotation
			JOINT LeftLeg
			{
				OFFSET 2.448110 -6.726130 0.000000
				CHANNELS 3 Zrotation Yrotation Xrotation
				JOINT LeftFoot
				{
					OFFSET 2.562200 -7.039590 0.000000
					CHANNELS 3 Zrotation Yrotation Xrotation
					JOINT LeftToeBase
					{
						OFFSET 0.157640 -0.433110 2.322550
						CHANNELS 3 Zrotation Yrotation Xrotation
						End Site
						{
							OFFSET 0.000000 0.000000 0.000000
						}
					}
				}
			}
		}
	}
	JOINT RHipJoint
	{
		OFFSET 0.000000 0.000000 0.000000
		CHANNELS 3 Zrotation Yrotation Xrotation
		JOINT RightUpLeg
		{
			OFFSET -1.305520 -1.794630 0.839290
			CHANNELS 3 Zrotation Yrotation Xrotation
			JOINT RightLeg
			{
				OFFSET -2.542530 -6.985550 0.000000
				CHANNELS 3 Zrotation Yrotation Xrotation
				JOINT RightFoot
				{
					OFFSET -2.568260 -7.056230 0.000000
					CHANNELS 3 Zrotation Yrotation Xrotation
					JOINT RightToeBase
					{
						OFFSET -0.164730 -0.452590 2.363150
						CHANNELS 3 Zrotation Yrotation Xrotation
						End Site
						{
							OFFSET 0.000000 0.000000 0.000000
						}
					}
				}
			}
		}
	}
	JOINT LowerBack
	{
		OFFSET 0.000000 0.000000 0.000000
		CHANNELS 3 Zrotation Yrotation Xrotation
		JOINT Spine
		{
			OFFSET 0.028270 2.035590 -0.193380
			CHANNELS 3 Zrotation Yrotation Xrotation
			JOINT Spine1
			{
				OFFSET 0.056720 2.048850 -0.042750
				CHANNELS 3 Zrotation Yrotation Xrotation
				JOINT Neck
				{
					OFFSET 0.000000 0.000000 0.000000
					CHANNELS 3 Zrotation Yrotation Xrotation
					JOINT Neck1
					{
						OFFSET -0.054170 1.746240 0.172020
						CHANNELS 3 Zrotation Yrotation Xrotation
						JOINT Head
						{
							OFFSET 0.104070 1.761360 -0.123970
							CHANNELS 3 Zrotation Yrotation Xrotation
							End Site
							{
								OFFSET 0.000000 0.000000 0.000000
							}
						}
					}
				}
				JOINT LeftShoulder
				{
					OFFSET 0.000000 0.000000 0.000000
					CHANNELS 3 Zrotation Yrotation Xrotation
					JOINT LeftArm
					{
						OFFSET 3.362410 1.200890 -0.311210
						CHANNELS 3 Zrotation Yrotation Xrotation
						JOINT LeftForeArm
						{
							OFFSET 4.983000 -0.000000 -0.000000
							CHANNELS 3 Zrotation Yrotation Xrotation
							JOINT LeftHand
							{
								OFFSET 3.483560 -0.000000 -0.000000
								CHANNELS 3 Zrotation Yrotation Xrotation
								JOINT LeftFingerBase
								{
									OFFSET 0.000000 0.000000 0.000000
									CHANNELS 3 Zrotation Yrotation Xrotation
									JOINT LeftHandIndex1
									{
										OFFSET 0.715260 -0.000000 -0.000000
										CHANNELS 3 Zrotation Yrotation Xrotation
										End Site
										{
											OFFSET 0.000000 0.000000 0.000000
										}
									}
								}
								JOINT LThumb
								{
									OFFSET 0.000000 0.000000 0.000000
									CHANNELS 3 Zrotation Yrotation Xrotation
									End Site
									{
										OFFSET 0.000000 0.000000 0.000000
									}
								}
							}
						}
					}
				}
				JOINT RightShoulder
				{
					OFFSET 0.000000 0.000000 0.000000
					CHANNELS 3 Zrotation Yrotation Xrotation
					JOINT RightArm
					{
						OFFSET -3.136600 1.374050 -0.404650
						CHANNELS 3 Zrotation Yrotation Xrotation
						JOINT RightForeArm
						{
							OFFSET -5.241900 -0.000000 -0.000000
							CHANNELS 3 Zrotation Yrotation Xrotation
							JOINT RightHand
							{
								OFFSET -3.444170 -0.000000 -0.000000
								CHANNELS 3 Zrotation Yrotation Xrotation
								JOINT RightFingerBase
								{
									OFFSET 0.000000 0.000000 0.000000
									CHANNELS 3 Zrotation Yrotation Xrotation
									JOINT RightHandIndex1
									{
										OFFSET -0.622530 -0.000000 -0.000000
										CHANNELS 3 Zrotation Yrotation Xrotation
										End Site
										{
											OFFSET 0.000000 0.000000 0.000000
										}
									}
								}
								JOINT RThumb
								{
									OFFSET 0.000000 0.000000 0.000000
									CHANNELS 3 Zrotation Yrotation Xrotation
									End Site
									{
										OFFSET 0.000000 0.000000 0.000000
									}
								}
							}
						}
					}
				}
			}
		}
	}
}
MOTION
Frames: 11
Frame Time: 0.033333
4.611907 16.748859 -27.276810 83.154242 -28.209786 -25.509431 -108.607312 -45.437546 64.405183 8.841186 12.953897 -45.568531 -89.888745 54.929373 -71.617978 -4.542281 5.096916 -1.341434 -1.213948 -0.259524 -78.369562 34.805686 -13.984797 -112.227060 -162.019099 -87.543878 126.638403 117.586093 -28.541226 -102.539700 6.793321 -1.817187 -12.513167 2.755542 -0.630709 -29.945995 -76.641434 73.760485 9.859781 -172.037610 77.490760 -172.595264 152.794467 68.193883 148.729562 -17.801864 -9.016539 9.838128 22.842552 10.196301 -1.301637 0.394833 -0.230963 0.300625 75.114817 55.977319 -28.709604 99.629429 79.298484 39.747915 -64.544643 46.843285 -115.302729 -1.205116 5.173349 88.571580 17.093234 0.723526 7.244638 -0.408017 -0.396311 0.397496 0.463590 0.371608 -0.392851 53.187576 67.836630 76.044162 46.549835 5.031719 -178.380583 10.806173 -52.592050 37.799537 14.496056 -0.812895 -17.989967 -1.986861 -22.511967 179.186012 -0.476456 0.290923 -0.397413 -0.307734 -0.574313 -0.330334 
4.457268 16.864180 -26.687843 82.399875 -27.084909 -24.332663 -110.189885 -47.953282 67.061733 5.873995 14.246784 -46.047180 -85.127565 58.064522 -63.509396 -2.368399 10.384453 5.664926 0.135316 0.204561 -77.869730 32.890318 -12.669269 -112.891512 -162.865923 -85.832172 125.329625 121.701349 -29.468165 -98.382318 8.804361 4.063815 -7.986420 3.591320 -0.771022 -30.937376 -73.226602 74.043918 13.300320 -172.799774 76.978739 -174.359769 148.109451 68.368495 144.849965 -18.421134 -6.004532 11.061871 22.320119 5.117682 1.535401 0.400797 -0.511894 0.410076 77.647098 54.650796 -25.506316 112.466693 76.229505 53.768707 -56.723471 48.428089 -108.025162 -2.570678 2.094953 79.413662 16.424974 -0.602944 -2.519758 -0.436556 -0.206626 0.397570 0.397578 0.353386 -0.332967 51.326414 69.316697 74.024255 46.120533 7.458787 178.800916 2.297030 -52.276609 41.663595 12.992670 -4.207585 -14.458899 -21.362847 -50.611967 -163.009013 -0.292508 0.445460 -0.395960 -0.548347 -0.314969 -0.379735 
4.279159 16.988617 -26.124699 80.935506 -26.702325 -23.746597 -108.192228 -50.835435 65.314447 5.091344 15.931452 -42.663227 -86.156240 58.567473 -55.739831 3.054040 11.484674 8.593441 1.551135 0.670834 -74.309713 31.830703 -11.930757 -113.285049 -164.077779 -83.428133 124.376426 124.517235 -30.676633 -97.148972 10.825933 8.333805 -8.411008 3.901752 -0.793641 -31.088929 -73.671929 76.746101 13.009481 -168.431922 76.944776 -170.868270 148.264723 69.485004 144.138228 -18.620935 3.677669 13.748314 19.605232 1.912484 1.908768 0.422918 -0.272090 0.317691 73.361335 52.618570 -28.382732 125.976738 72.821209 64.708800 -55.804218 46.300651 -101.957064 2.536165 5.071228 76.910051 12.202901 0.187515 -4.892896 -0.581140 -0.341492 0.307239 0.232329 0.368373 -0.347780 54.690086 69.083143 78.465227 45.930565 11.019124 175.480152 -0.494131 -51.224251 40.301711 10.119770 -4.277719 -14.245483 -34.933813 -70.625061 -130.930855 -0.544914 0.484012 -0.430687 -0.355713 -0.438862 -0.353742 
4.101165 17.103043 -25.590736 80.652381 -26.005033 -23.920699 -104.464173 -52.084986 61.558153 6.054132 17.073770 -41.594720 -91.453068 62.104904 -49.792388 10.064258 13.545792 6.631625 2.273200 0.775699 -66.622212 30.898874 -10.274138 -113.986244 -169.108337 -83.140610 126.517439 123.972094 -32.231641 -97.328563 4.877498 8.535624 -9.483982 4.096964 -0.857840 -29.437340 -67.722564 76.686789 19.027662 -167.860852 76.399337 -169.326782 146.139815 70.207401 140.671832 -18.596029 8.235120 15.946092 21.336576 1.236093 1.418007 0.355048 -0.326174 0.348612 72.205768 50.509223 -27.421952 134.243758 70.131680 70.181552 -52.675360 44.933482 -95.755392 1.393602 1.405643 75.501354 1.690667 5.141172 -7.087900 -0.168447 -0.344961 0.344487 0.528599 0.320969 -0.391688 63.321827 68.741781 86.808210 44.854121 13.330553 173.950995 -4.168154 -52.859736 44.050529 10.469309 -1.719911 -12.254302 -50.205028 -67.923035 -101.519555 -0.292459 0.479276 -0.412941 -0.465436 -0.258812 -0.357449 
3.935486 17.202600 -25.089479 80.928742 -27.198048 -24.856262 -101.922598 -52.089458 57.685200 7.894174 18.706350 -39.452890 -100.379977 64.208857 -50.067789 8.215690 13.437341 -0.589902 2.652992 0.658817 -56.815337 31.162362 -7.110868 -113.771586 -169.153374 -83.838133 123.677736 124.150106 -32.260567 -97.224851 -1.971275 3.998772 -15.675253 3.702264 -0.861060 -24.901598 -65.507735 78.044154 20.031801 -168.535391 76.921080 -169.338687 147.423350 69.845852 140.220564 -17.759374 12.167610 16.451923 22.982580 -0.257246 -1.124655 0.322680 -0.281440 0.302835 65.901154 50.179132 -31.152861 135.478576 67.791258 68.682480 -52.005073 45.138191 -94.255262 -4.607548 7.193203 75.461617 -10.535262 6.901331 -7.417877 -0.350749 -0.427982 0.362830 0.383503 0.366097 -0.415036 69.830573 67.946119 94.080828 44.249848 16.521938 171.597310 -7.644285 -53.801864 49.586345 10.077150 0.323886 -8.667127 -8.130272 -52.600877 -141.366493 -0.447200 0.243577 -0.303693 -0.261452 -0.340864 -0.328166 
3.771840 17.289322 -24.620636 81.936941 -28.290567 -26.394768 -101.653665 -51.572592 56.274392 10.355074 20.221082 -38.786893 -108.785153 64.983171 -55.112703 6.564665 12.932128 -4.658358 2.367073 0.307288 -48.434461 31.882768 -6.000967 -113.806414 -168.820460 -85.331879 122.220444 123.792692 -32.629364 -98.530016 -9.474427 0.321551 -21.582130 3.408660 -0.702427 -19.491981 -63.999677 78.197057 21.073354 -171.675364 76.953694 -171.939820 144.503099 70.359319 136.047434 -18.486038 15.168356 17.517256 26.459811 2.569295 -0.194485 0.365685 -0.320076 0.344476 64.065157 49.710983 -30.987930 134.040041 64.105434 66.527167 -46.810309 46.859224 -92.424180 -12.053509 12.754438 74.650947 -22.774811 4.499414 5.797434 -0.314977 -0.308411 0.334642 0.365098 0.322677 -0.351973 79.388623 67.071903 103.456903 42.643169 20.081057 169.666634 -14.440441 -54.520440 59.395343 8.996619 2.818549 3.283652 11.025811 -25.817174 -162.312974 -0.396472 0.463569 -0.371417 -0.424392 -0.288022 -0.384993 
3.604323 17.360489 -24.170683 82.789815 -29.431666 -27.192008 -101.361754 -50.800602 56.856259 13.979395 21.577150 -40.664625 -112.307651 65.583704 -57.834875 10.251678 12.038384 -6.452300 2.551519 0.074555 -39.344473 32.720819 -5.536408 -114.113762 -166.276369 -87.028697 118.633386 124.760871 -32.705975 -99.299552 -13.936353 -1.314224 -26.584733 3.381857 -0.769934 -14.893422 -66.017347 78.323111 18.696543 -171.754785 77.116773 -172.080873 144.027041 69.975630 134.367370 -24.651506 17.131786 18.551925 31.621096 -1.285097 -4.207450 0.383803 -0.384479 0.434306 61.447160 50.516057 -31.776111 133.177671 62.294765 67.429478 -39.926995 45.630012 -88.102451 -20.002952 15.440988 76.874611 -36.349384 1.735666 4.720949 -0.377945 -0.407324 0.385697 0.306152 0.337090 -0.335168 87.143272 66.609509 111.616907 40.976392 25.882966 165.680642 -22.030669 -54.219000 68.604189 9.077341 7.066678 5.725105 8.019620 -0.482413 -150.542896 -0.389249 0.383442 -0.420969 -0.367595 -0.358023 -0.313760 
3.443361 17.409586 -23.721451 83.807433 -30.213952 -28.419132 -99.688800 -49.811005 56.679711 16.638927 22.958667 -42.737272 -114.794559 64.027435 -61.618573 15.249423 14.944268 -8.672912 2.479390 -0.126558 -33.634811 33.582105 -7.092392 -114.008902 129.149183 -88.633914 -177.059568 123.069715 -32.651841 -101.144567 -17.932539 -2.169426 -28.753468 3.599697 -0.923235 -11.832463 -68.394810 78.934821 17.730319 -162.697090 77.024186 -162.768410 145.450513 70.282634 134.099030 -27.985433 19.261524 17.832934 33.922674 8.445977 -5.300452 0.346171 -0.413016 0.300550 62.880568 50.152864 -29.258435 135.417873 60.512208 73.164014 -30.903692 42.437254 -82.143413 -27.723868 20.807123 73.926411 -42.811399 -3.208706 10.862374 -0.391859 -0.355519 0.355433 0.396897 0.447689 -0.401994 94.465214 65.973668 119.299986 38.201292 32.452021 161.318157 -29.812068 -53.884427 79.038286 7.231044 16.875483 9.123767 7.032650 10.336906 -137.030257 -0.440718 0.366059 -0.438754 -0.415272 -0.467406 -0.350164 
3.298543 17.433393 -23.263878 85.419076 -31.465602 -29.636327 -96.509269 -47.806824 57.136801 19.455559 24.141191 -48.690277 -117.279893 64.739670 -68.236131 18.812207 11.964564 -13.870491 2.522190 -0.227094 -26.790830 34.726404 -8.411998 -115.420481 49.727250 -87.618334 -98.695556 123.818397 -34.008710 -107.217639 -20.017236 -1.591558 -27.999456 3.346151 -0.916961 -9.890175 -79.759986 80.217280 8.027104 -164.917547 76.793329 -165.911230 143.625460 70.173060 131.842119 -30.185219 17.660781 16.653567 30.448881 9.825769 -4.363918 0.486151 -0.210650 0.454284 62.692757 50.218655 -26.814181 135.351745 59.583001 76.846845 -26.457346 38.324755 -79.020078 -29.612934 20.029307 75.659322 -49.203902 -10.762946 3.676785 -0.365945 -0.397537 0.399785 0.436458 0.406399 -0.367800 96.161955 65.125798 122.466155 33.443495 40.217122 156.379690 -37.888604 -53.465816 87.416529 4.810023 23.193949 7.788063 5.517348 12.045925 -110.533817 -0.357458 0.365287 -0.230655 -0.246644 -0.313565 -0.464451 
3.169443 17.432779 -22.797258 88.198488 -33.319652 -31.297801 -94.997795 -47.899636 56.418831 21.703613 26.869399 -52.938156 -118.224567 66.374742 -73.919222 23.182562 9.011648 -18.908085 2.323730 -0.155628 -24.269044 34.267900 -8.862840 -116.013748 40.240987 -86.321000 -90.513610 123.501979 -35.643617 -112.409370 -26.728419 -5.264033 -24.495976 2.859042 -0.763229 -9.046368 -91.896934 79.646542 -0.325756 -158.616263 75.222751 -158.912843 145.132715 69.825466 132.763269 -25.594951 16.838752 17.591334 22.197932 10.038066 -4.336585 0.386835 -0.524434 0.344134 62.938054 51.097331 -24.839027 130.169575 58.635430 77.931109 -24.772033 35.209032 -79.734516 -32.869879 17.175417 69.221636 -48.297638 -19.635586 -7.436204 -0.501259 -0.365153 0.409438 0.298351 0.308443 -0.432206 98.179056 64.659933 124.872835 27.373486 45.968598 148.563936 -48.623663 -51.099947 98.394088 1.559068 29.569773 4.428813 9.720008 15.968755 -76.336980 -0.498801 0.353525 -0.436028 -0.504294 -0.415455 -0.359827 
3.054452 17.410545 -22.319574 89.545617 -33.403567 -32.569200 -93.469087 -47.774816 56.997246 22.103440 28.621877 -58.052709 -108.003048 69.996539 -69.784051 29.725523 5.724860 -15.939490 2.162080 -0.219543 -19.016314 34.910511 -9.726245 -116.543659 26.426458 -83.343186 -77.863097 123.139988 -36.213916 -116.791406 -26.926147 -7.657610 -21.511176 2.875239 -0.781819 -8.230602 -99.351078 78.738861 -6.690283 -162.320488 75.031445 -163.931540 148.254056 68.528916 135.763369 -24.585936 15.999534 17.534675 20.650933 13.544752 -1.932109 0.439979 -0.289787 0.407444 60.829953 52.028286 -24.827445 123.547711 59.325089 74.479688 -20.696265 36.139735 -78.111162 -34.319242 17.823287 66.045320 -46.395626 -22.036780 -18.929124 -0.391920 -0.404369 0.317231 0.416659 0.408470 -0.366895 95.471978 64.516336 121.793580 22.739131 52.180940 141.512840 -55.918922 -50.147355 105.554831 18.813836 39.680899 20.955472 20.887396 14.162136 -47.680845 -0.413579 0.494738 -0.356569 -0.414964 -0.395014 -0.495776 
